<?xml version="1.0" encoding="UTF-8"?>
<svg xmlns="http://www.w3.org/2000/svg" width="1280" height="800" viewBox="0 0 1280 800">
<rect width="1280" height="800" fill="#070b0a"/>
<rect x="0" y="0" width="1280" height="56" fill="#080e0d"/>
<text x="28" y="36" font-family="Arial,sans-serif" font-size="20" font-weight="700" fill="#109963">Up</text>
<text x="54" y="36" font-family="Arial,sans-serif" font-size="20" font-weight="600" fill="#f4f7fb">Grade</text>
<text x="180" y="35" font-family="Arial,sans-serif" font-size="12" fill="#a8b6c7">Главная</text>
<text x="275" y="35" font-family="Arial,sans-serif" font-size="12" fill="#6ee7a7">Идеи</text>
<text x="370" y="35" font-family="Arial,sans-serif" font-size="12" fill="#a8b6c7">Рейтинг</text>
<text x="465" y="35" font-family="Arial,sans-serif" font-size="12" fill="#a8b6c7">Избранное</text>
<text x="560" y="35" font-family="Arial,sans-serif" font-size="12" fill="#a8b6c7">Новости</text>
<text x="655" y="35" font-family="Arial,sans-serif" font-size="12" fill="#a8b6c7">Команды</text>
<text x="750" y="35" font-family="Arial,sans-serif" font-size="12" fill="#a8b6c7">Поддержка</text>
<text x="845" y="35" font-family="Arial,sans-serif" font-size="12" fill="#a8b6c7">О платформе</text>
<text x="40" y="100" font-family="Arial,sans-serif" font-size="24" font-weight="700" fill="#f4f7fb">Автоматизация осмотра залога</text>
<text x="40" y="128" font-family="Arial,sans-serif" font-size="13" fill="#a8b6c7">Автор: Иванова · 4.6 · 28 оценок</text>
<rect x="40" y="150" width="150" height="36" rx="10" fill="#1a4d3a" stroke="#2a3a55"/>
<text x="115" y="173" font-family="Arial,sans-serif" font-size="11" fill="#6ee7a7" text-anchor="middle">Подача</text>
<rect x="205" y="150" width="150" height="36" rx="10" fill="#1a4d3a" stroke="#2a3a55"/>
<text x="280" y="173" font-family="Arial,sans-serif" font-size="11" fill="#6ee7a7" text-anchor="middle">Оценка</text>
<rect x="370" y="150" width="150" height="36" rx="10" fill="#1a4d3a" stroke="#2a3a55"/>
<text x="445" y="173" font-family="Arial,sans-serif" font-size="11" fill="#6ee7a7" text-anchor="middle">Поиск</text>
<rect x="535" y="150" width="150" height="36" rx="10" fill="#1a4d3a" stroke="#2a3a55"/>
<text x="610" y="173" font-family="Arial,sans-serif" font-size="11" fill="#6ee7a7" text-anchor="middle">Прототип</text>
<rect x="700" y="150" width="150" height="36" rx="10" fill="#101c1a" stroke="#2a3a55"/>
<text x="775" y="173" font-family="Arial,sans-serif" font-size="11" fill="#a8b6c7" text-anchor="middle">Пилот</text>
<rect x="865" y="150" width="150" height="36" rx="10" fill="#101c1a" stroke="#2a3a55"/>
<text x="940" y="173" font-family="Arial,sans-serif" font-size="11" fill="#a8b6c7" text-anchor="middle">Бэклог</text>
<rect x="1030" y="150" width="150" height="36" rx="10" fill="#101c1a" stroke="#2a3a55"/>
<text x="1105" y="173" font-family="Arial,sans-serif" font-size="11" fill="#a8b6c7" text-anchor="middle">Внедрено</text>
<rect x="40" y="220" width="820" height="320" rx="16" fill="#101c1a" stroke="#2a3a55"/>
<text x="64" y="260" font-family="Arial,sans-serif" font-size="14" font-weight="600" fill="#f4f7fb">Описание</text>
<text x="64" y="290" font-family="Arial,sans-serif" font-size="13" fill="#a8b6c7">Мобильный осмотр с AI-подсказками и чек-листом.</text>
<rect x="64" y="360" width="160" height="40" rx="12" fill="#1a4d3a" stroke="#109963"/>
<text x="144" y="385" font-family="Arial,sans-serif" font-size="13" font-weight="600" fill="#6ee7a7" text-anchor="middle">Прототип</text>
<rect x="900" y="220" width="340" height="320" rx="16" fill="#101c1a" stroke="#2a3a55"/>
<text x="920" y="256" font-family="Arial,sans-serif" font-size="15" font-weight="600" fill="#f4f7fb">Пилотные замечания</text>
<text x="920" y="280" font-family="Arial,sans-serif" font-size="12" fill="#a8b6c7">2 открытых · 5 закрытых</text>
<rect x="920" y="298" width="51" height="22" rx="8" fill="#1a3d32"/>
<text x="928" y="313" font-family="Arial,sans-serif" font-size="11" fill="#6ee7a7">пилот</text>
</svg>
