<?xml version="1.0" encoding="UTF-8"?>
<svg xmlns="http://www.w3.org/2000/svg" width="4160" height="3720" viewBox="0 0 4160 3720">
<rect width="4160" height="3720" fill="#1a1a1e"/>
<text x="80" y="48" font-family="Bricolage Grotesque,sans-serif" font-size="28" font-weight="700" fill="#f4f7fb">UpGrade — полный макет</text>
<text x="80" y="78" font-family="Figtree,sans-serif" font-size="14" fill="#a8b6c7">Платформа инициатив залоговой службы · desktop 1280×800 · тёмная тема</text>

<text x="80" y="182" font-family="Figtree,sans-serif" font-size="14" font-weight="600" fill="#a8b6c7">01 · Login</text>
<rect x="80" y="200" width="1280" height="800" rx="8" fill="#070b0a"/>
<circle cx="230" cy="240" r="180" fill="rgba(110,231,167,0.12)"/>
<circle cx="1180" cy="280" r="160" fill="rgba(168,85,247,0.10)"/>
<rect x="80" y="200" width="1280" height="56" fill="#080e0d" fill-opacity="0.92"/>
<text x="108" y="236" font-family="Space Grotesk,sans-serif" font-size="20" font-weight="700" fill="#109963">Up</text>
<text x="134" y="236" font-family="Space Grotesk,sans-serif" font-size="20" font-weight="600" fill="#f4f7fb">Grade</text>
<rect x="510" y="430" width="420" height="340" rx="18" fill="#101c1a" stroke="rgba(255,255,255,0.14)"/>
<text x="720" y="486" font-family="Bricolage Grotesque,sans-serif" font-size="28" font-weight="700" fill="#f4f7fb" text-anchor="middle">Вход</text>
<text x="540" y="530" font-family="Figtree,sans-serif" font-size="13" fill="#a8b6c7">Логин</text>
<rect x="540" y="540" width="360" height="44" rx="12" fill="rgba(0,0,0,0.35)" stroke="rgba(255,255,255,0.14)"/>
<text x="540" y="620" font-family="Figtree,sans-serif" font-size="13" fill="#a8b6c7">Пароль</text>
<rect x="540" y="630" width="360" height="44" rx="12" fill="rgba(0,0,0,0.35)" stroke="rgba(255,255,255,0.14)"/>
<rect x="540" y="700" width="360" height="44" rx="12" fill="rgba(110,231,167,0.22)" stroke="rgba(110,231,167,0.45)"/>
<text x="720" y="728" font-family="Figtree,sans-serif" font-size="15" font-weight="600" fill="#6ee7a7" text-anchor="middle">Войти</text>
<text x="1440" y="182" font-family="Figtree,sans-serif" font-size="14" font-weight="600" fill="#a8b6c7">02 · Главная</text>
<rect x="1440" y="200" width="1280" height="800" rx="8" fill="#070b0a"/>
<circle cx="1590" cy="240" r="180" fill="rgba(110,231,167,0.12)"/>
<circle cx="2540" cy="280" r="160" fill="rgba(168,85,247,0.10)"/>
<rect x="1440" y="200" width="1280" height="56" fill="#080e0d" fill-opacity="0.92"/>
<text x="1468" y="236" font-family="Space Grotesk,sans-serif" font-size="20" font-weight="700" fill="#109963">Up</text>
<text x="1494" y="236" font-family="Space Grotesk,sans-serif" font-size="20" font-weight="600" fill="#f4f7fb">Grade</text>
<text x="1620" y="235" font-family="Figtree,sans-serif" font-size="12" font-weight="600" fill="#6ee7a7">Главная</text>
<text x="1715" y="235" font-family="Figtree,sans-serif" font-size="12" font-weight="400" fill="#a8b6c7">Идеи</text>
<text x="1810" y="235" font-family="Figtree,sans-serif" font-size="12" font-weight="400" fill="#a8b6c7">Рейтинг</text>
<text x="1905" y="235" font-family="Figtree,sans-serif" font-size="12" font-weight="400" fill="#a8b6c7">Избранное</text>
<text x="2000" y="235" font-family="Figtree,sans-serif" font-size="12" font-weight="400" fill="#a8b6c7">Новости</text>
<text x="2095" y="235" font-family="Figtree,sans-serif" font-size="12" font-weight="400" fill="#a8b6c7">Команды</text>
<text x="2190" y="235" font-family="Figtree,sans-serif" font-size="12" font-weight="400" fill="#a8b6c7">Поддержка</text>
<text x="2285" y="235" font-family="Figtree,sans-serif" font-size="12" font-weight="400" fill="#a8b6c7">О платформе</text>
<text x="2680" y="235" font-family="Figtree,sans-serif" font-size="12" fill="#a8b6c7" text-anchor="end">Админ</text>
<rect x="1480" y="290" width="1200" height="140" rx="18" fill="#101c1a" stroke="rgba(255,255,255,0.14)"/>
<text x="1504" y="345" font-family="Bricolage Grotesque,sans-serif" font-size="32" font-weight="700" fill="#f4f7fb">Платформа инициатив</text>
<text x="1504" y="380" font-family="Figtree,sans-serif" font-size="15" fill="#a8b6c7">От идеи до внедрения в залоговой службе</text>
<rect x="1504" y="400" width="140" height="40" rx="12" fill="rgba(110,231,167,0.18)" stroke="rgba(110,231,167,0.45)"/>
<text x="1574" y="425" font-family="Figtree,sans-serif" font-size="14" font-weight="600" fill="#6ee7a7" text-anchor="middle">К идеям</text>
<rect x="1480" y="460" width="380" height="160" rx="16" fill="#101c1a" stroke="rgba(255,255,255,0.14)" stroke-width="1"/>
<text x="1500" y="496" font-family="Figtree,sans-serif" font-size="15" font-weight="600" fill="#f4f7fb">Новость дня</text>
<text x="1500" y="520" font-family="Figtree,sans-serif" font-size="12" fill="#a8b6c7">Открыт пилот единых статусов заявок</text>
<rect x="1500" y="538" width="72" height="22" rx="8" fill="rgba(110,231,167,0.12)"/>
<text x="1508" y="553" font-family="Figtree,sans-serif" font-size="11" fill="#6ee7a7">новости</text>
<rect x="1890" y="460" width="380" height="160" rx="16" fill="#101c1a" stroke="rgba(255,255,255,0.14)" stroke-width="1"/>
<text x="1910" y="496" font-family="Figtree,sans-serif" font-size="15" font-weight="600" fill="#f4f7fb">Идей в каталоге</text>
<text x="1910" y="520" font-family="Figtree,sans-serif" font-size="12" fill="#a8b6c7">128 активных инициатив</text>
<rect x="1910" y="538" width="72" height="22" rx="8" fill="rgba(110,231,167,0.12)"/>
<text x="1918" y="553" font-family="Figtree,sans-serif" font-size="11" fill="#6ee7a7">каталог</text>
<rect x="2300" y="460" width="380" height="160" rx="16" fill="#101c1a" stroke="rgba(255,255,255,0.14)" stroke-width="1"/>
<text x="2320" y="496" font-family="Figtree,sans-serif" font-size="15" font-weight="600" fill="#f4f7fb">Внедрено за квартал</text>
<text x="2320" y="520" font-family="Figtree,sans-serif" font-size="12" fill="#a8b6c7">14 решений в проде</text>
<rect x="2320" y="538" width="88" height="22" rx="8" fill="rgba(110,231,167,0.12)"/>
<text x="2328" y="553" font-family="Figtree,sans-serif" font-size="11" fill="#6ee7a7">результат</text>
<rect x="1480" y="650" width="580" height="200" rx="16" fill="#101c1a" stroke="rgba(255,255,255,0.14)" stroke-width="1"/>
<text x="1500" y="686" font-family="Figtree,sans-serif" font-size="15" font-weight="600" fill="#f4f7fb">Топ идей по рейтингу</text>
<text x="1500" y="710" font-family="Figtree,sans-serif" font-size="12" fill="#a8b6c7">1. Мониторинг ПМЗ — 4.8   2. Осмотр AI — 4.6</text>
<rect x="1500" y="728" width="72" height="22" rx="8" fill="rgba(110,231,167,0.12)"/>
<text x="1508" y="743" font-family="Figtree,sans-serif" font-size="11" fill="#6ee7a7">рейтинг</text>
<rect x="2090" y="650" width="590" height="200" rx="16" fill="#101c1a" stroke="rgba(255,255,255,0.14)" stroke-width="1"/>
<text x="2110" y="686" font-family="Figtree,sans-serif" font-size="15" font-weight="600" fill="#f4f7fb">Топ авторов</text>
<text x="2110" y="710" font-family="Figtree,sans-serif" font-size="12" fill="#a8b6c7">Иванова · Петров · Сидорова</text>
<rect x="2110" y="728" width="64" height="22" rx="8" fill="rgba(110,231,167,0.12)"/>
<text x="2118" y="743" font-family="Figtree,sans-serif" font-size="11" fill="#6ee7a7">авторы</text>
<text x="2800" y="182" font-family="Figtree,sans-serif" font-size="14" font-weight="600" fill="#a8b6c7">03 · Каталог идей</text>
<rect x="2800" y="200" width="1280" height="800" rx="8" fill="#070b0a"/>
<circle cx="2950" cy="240" r="180" fill="rgba(110,231,167,0.12)"/>
<circle cx="3900" cy="280" r="160" fill="rgba(168,85,247,0.10)"/>
<rect x="2800" y="200" width="1280" height="56" fill="#080e0d" fill-opacity="0.92"/>
<text x="2828" y="236" font-family="Space Grotesk,sans-serif" font-size="20" font-weight="700" fill="#109963">Up</text>
<text x="2854" y="236" font-family="Space Grotesk,sans-serif" font-size="20" font-weight="600" fill="#f4f7fb">Grade</text>
<text x="2980" y="235" font-family="Figtree,sans-serif" font-size="12" font-weight="400" fill="#a8b6c7">Главная</text>
<text x="3075" y="235" font-family="Figtree,sans-serif" font-size="12" font-weight="600" fill="#6ee7a7">Идеи</text>
<text x="3170" y="235" font-family="Figtree,sans-serif" font-size="12" font-weight="400" fill="#a8b6c7">Рейтинг</text>
<text x="3265" y="235" font-family="Figtree,sans-serif" font-size="12" font-weight="400" fill="#a8b6c7">Избранное</text>
<text x="3360" y="235" font-family="Figtree,sans-serif" font-size="12" font-weight="400" fill="#a8b6c7">Новости</text>
<text x="3455" y="235" font-family="Figtree,sans-serif" font-size="12" font-weight="400" fill="#a8b6c7">Команды</text>
<text x="3550" y="235" font-family="Figtree,sans-serif" font-size="12" font-weight="400" fill="#a8b6c7">Поддержка</text>
<text x="3645" y="235" font-family="Figtree,sans-serif" font-size="12" font-weight="400" fill="#a8b6c7">О платформе</text>
<text x="4040" y="235" font-family="Figtree,sans-serif" font-size="12" fill="#a8b6c7" text-anchor="end">Админ</text>
<text x="2840" y="300" font-family="Bricolage Grotesque,sans-serif" font-size="26" font-weight="700" fill="#f4f7fb">Каталог идей</text>
<rect x="2840" y="320" width="320" height="40" rx="12" fill="rgba(0,0,0,0.35)" stroke="rgba(255,255,255,0.14)"/>
<text x="2856" y="345" font-family="Figtree,sans-serif" font-size="13" fill="#a8b6c7">Поиск по идеям…</text>
<rect x="2840" y="380" width="380" height="200" rx="16" fill="#101c1a" stroke="rgba(255,255,255,0.14)" stroke-width="1"/>
<text x="2860" y="416" font-family="Figtree,sans-serif" font-size="15" font-weight="600" fill="#f4f7fb">Автоматизация осмотра залога</text>
<text x="2860" y="440" font-family="Figtree,sans-serif" font-size="12" fill="#a8b6c7">Прототип · ★ 4.6</text>
<rect x="2860" y="458" width="64" height="22" rx="8" fill="rgba(110,231,167,0.12)"/>
<text x="2868" y="473" font-family="Figtree,sans-serif" font-size="11" fill="#6ee7a7">осмотр</text>
<rect x="2936" y="458" width="32" height="22" rx="8" fill="rgba(110,231,167,0.12)"/>
<text x="2944" y="473" font-family="Figtree,sans-serif" font-size="11" fill="#6ee7a7">AI</text>
<rect x="3250" y="380" width="380" height="200" rx="16" fill="#101c1a" stroke="rgba(255,255,255,0.14)" stroke-width="1"/>
<text x="3270" y="416" font-family="Figtree,sans-serif" font-size="15" font-weight="600" fill="#f4f7fb">Единый статус заявки</text>
<text x="3270" y="440" font-family="Figtree,sans-serif" font-size="12" fill="#a8b6c7">Пилот · ★ 4.2</text>
<rect x="3270" y="458" width="72" height="22" rx="8" fill="rgba(110,231,167,0.12)"/>
<text x="3278" y="473" font-family="Figtree,sans-serif" font-size="11" fill="#6ee7a7">статусы</text>
<rect x="3660" y="380" width="380" height="200" rx="16" fill="#101c1a" stroke="rgba(255,255,255,0.14)" stroke-width="1"/>
<text x="3680" y="416" font-family="Figtree,sans-serif" font-size="15" font-weight="600" fill="#f4f7fb">Кабинет инициатора</text>
<text x="3680" y="440" font-family="Figtree,sans-serif" font-size="12" fill="#a8b6c7">Подача · ★ 3.9</text>
<rect x="3680" y="458" width="64" height="22" rx="8" fill="rgba(110,231,167,0.12)"/>
<text x="3688" y="473" font-family="Figtree,sans-serif" font-size="11" fill="#6ee7a7">портал</text>
<rect x="2840" y="620" width="380" height="200" rx="16" fill="#101c1a" stroke="rgba(255,255,255,0.14)" stroke-width="1"/>
<text x="2860" y="656" font-family="Figtree,sans-serif" font-size="15" font-weight="600" fill="#f4f7fb">Шаблоны служебных записок</text>
<text x="2860" y="680" font-family="Figtree,sans-serif" font-size="12" fill="#a8b6c7">Бэклог · ★ 4.1</text>
<rect x="2860" y="698" width="88" height="22" rx="8" fill="rgba(110,231,167,0.12)"/>
<text x="2868" y="713" font-family="Figtree,sans-serif" font-size="11" fill="#6ee7a7">документы</text>
<rect x="3250" y="620" width="380" height="200" rx="16" fill="#101c1a" stroke="rgba(255,255,255,0.14)" stroke-width="1"/>
<text x="3270" y="656" font-family="Figtree,sans-serif" font-size="15" font-weight="600" fill="#f4f7fb">Мониторинг ПМЗ</text>
<text x="3270" y="680" font-family="Figtree,sans-serif" font-size="12" fill="#a8b6c7">Внедрено · ★ 4.8</text>
<rect x="3270" y="698" width="40" height="22" rx="8" fill="rgba(110,231,167,0.12)"/>
<text x="3278" y="713" font-family="Figtree,sans-serif" font-size="11" fill="#6ee7a7">ПМЗ</text>
<rect x="3660" y="620" width="380" height="200" rx="16" fill="#101c1a" stroke="rgba(255,255,255,0.14)" stroke-width="1"/>
<text x="3680" y="656" font-family="Figtree,sans-serif" font-size="15" font-weight="600" fill="#f4f7fb">Экспресс-оценка AI</text>
<text x="3680" y="680" font-family="Figtree,sans-serif" font-size="12" fill="#a8b6c7">Поиск разработчика · ★ 4.4</text>
<rect x="3680" y="698" width="64" height="22" rx="8" fill="rgba(110,231,167,0.12)"/>
<text x="3688" y="713" font-family="Figtree,sans-serif" font-size="11" fill="#6ee7a7">оценка</text>
<text x="80" y="1062" font-family="Figtree,sans-serif" font-size="14" font-weight="600" fill="#a8b6c7">04 · Карточка идеи</text>
<rect x="80" y="1080" width="1280" height="800" rx="8" fill="#070b0a"/>
<circle cx="230" cy="1120" r="180" fill="rgba(110,231,167,0.12)"/>
<circle cx="1180" cy="1160" r="160" fill="rgba(168,85,247,0.10)"/>
<rect x="80" y="1080" width="1280" height="56" fill="#080e0d" fill-opacity="0.92"/>
<text x="108" y="1116" font-family="Space Grotesk,sans-serif" font-size="20" font-weight="700" fill="#109963">Up</text>
<text x="134" y="1116" font-family="Space Grotesk,sans-serif" font-size="20" font-weight="600" fill="#f4f7fb">Grade</text>
<text x="260" y="1115" font-family="Figtree,sans-serif" font-size="12" font-weight="400" fill="#a8b6c7">Главная</text>
<text x="355" y="1115" font-family="Figtree,sans-serif" font-size="12" font-weight="600" fill="#6ee7a7">Идеи</text>
<text x="450" y="1115" font-family="Figtree,sans-serif" font-size="12" font-weight="400" fill="#a8b6c7">Рейтинг</text>
<text x="545" y="1115" font-family="Figtree,sans-serif" font-size="12" font-weight="400" fill="#a8b6c7">Избранное</text>
<text x="640" y="1115" font-family="Figtree,sans-serif" font-size="12" font-weight="400" fill="#a8b6c7">Новости</text>
<text x="735" y="1115" font-family="Figtree,sans-serif" font-size="12" font-weight="400" fill="#a8b6c7">Команды</text>
<text x="830" y="1115" font-family="Figtree,sans-serif" font-size="12" font-weight="400" fill="#a8b6c7">Поддержка</text>
<text x="925" y="1115" font-family="Figtree,sans-serif" font-size="12" font-weight="400" fill="#a8b6c7">О платформе</text>
<text x="1320" y="1115" font-family="Figtree,sans-serif" font-size="12" fill="#a8b6c7" text-anchor="end">Админ</text>
<text x="120" y="1180" font-family="Bricolage Grotesque,sans-serif" font-size="24" font-weight="700" fill="#f4f7fb">Автоматизация осмотра залога</text>
<text x="120" y="1208" font-family="Figtree,sans-serif" font-size="13" fill="#a8b6c7">Автор: Иванова · ★ 4.6 · 28 оценок</text>
<rect x="120" y="1230" width="150" height="36" rx="10" fill="rgba(110,231,167,0.2)" stroke="#6ee7a7"/>
<text x="195" y="1253" font-family="Space Grotesk,sans-serif" font-size="11" fill="#6ee7a7" text-anchor="middle">Подача</text>
<rect x="285" y="1230" width="150" height="36" rx="10" fill="rgba(110,231,167,0.2)" stroke="#6ee7a7"/>
<text x="360" y="1253" font-family="Space Grotesk,sans-serif" font-size="11" fill="#6ee7a7" text-anchor="middle">Оценка</text>
<rect x="450" y="1230" width="150" height="36" rx="10" fill="rgba(110,231,167,0.2)" stroke="#6ee7a7"/>
<text x="525" y="1253" font-family="Space Grotesk,sans-serif" font-size="11" fill="#6ee7a7" text-anchor="middle">Поиск разр.</text>
<rect x="615" y="1230" width="150" height="36" rx="10" fill="rgba(110,231,167,0.2)" stroke="#6ee7a7"/>
<text x="690" y="1253" font-family="Space Grotesk,sans-serif" font-size="11" fill="#6ee7a7" text-anchor="middle">Прототип</text>
<rect x="780" y="1230" width="150" height="36" rx="10" fill="#101c1a" stroke="rgba(255,255,255,0.14)"/>
<text x="855" y="1253" font-family="Space Grotesk,sans-serif" font-size="11" fill="#a8b6c7" text-anchor="middle">Пилот</text>
<rect x="945" y="1230" width="150" height="36" rx="10" fill="#101c1a" stroke="rgba(255,255,255,0.14)"/>
<text x="1020" y="1253" font-family="Space Grotesk,sans-serif" font-size="11" fill="#a8b6c7" text-anchor="middle">Бэклог</text>
<rect x="1110" y="1230" width="150" height="36" rx="10" fill="#101c1a" stroke="rgba(255,255,255,0.14)"/>
<text x="1185" y="1253" font-family="Space Grotesk,sans-serif" font-size="11" fill="#a8b6c7" text-anchor="middle">Внедрено</text>
<rect x="120" y="1300" width="820" height="320" rx="16" fill="#101c1a" stroke="rgba(255,255,255,0.14)"/>
<text x="144" y="1340" font-family="Figtree,sans-serif" font-size="14" font-weight="600" fill="#f4f7fb">Описание</text>
<text x="144" y="1370" font-family="Figtree,sans-serif" font-size="13" fill="#a8b6c7">Мобильный сценарий осмотра с AI-подсказками и чек-листом.</text>
<text x="144" y="1395" font-family="Figtree,sans-serif" font-size="13" fill="#a8b6c7">Снижает время выезда и ошибки заполнения акта.</text>
<rect x="144" y="1440" width="160" height="40" rx="12" fill="rgba(110,231,167,0.18)" stroke="rgba(110,231,167,0.45)"/>
<text x="224" y="1465" font-family="Figtree,sans-serif" font-size="13" font-weight="600" fill="#6ee7a7" text-anchor="middle">Открыть прототип</text>
<rect x="320" y="1440" width="140" height="40" rx="12" fill="rgba(255,255,255,0.05)" stroke="rgba(255,255,255,0.14)"/>
<text x="390" y="1465" font-family="Figtree,sans-serif" font-size="13" fill="#f4f7fb" text-anchor="middle">В избранное</text>
<rect x="980" y="1300" width="340" height="320" rx="16" fill="#101c1a" stroke="rgba(255,255,255,0.14)" stroke-width="1"/>
<text x="1000" y="1336" font-family="Figtree,sans-serif" font-size="15" font-weight="600" fill="#f4f7fb">Пилотные замечания</text>
<text x="1000" y="1360" font-family="Figtree,sans-serif" font-size="12" fill="#a8b6c7">2 открытых · 5 закрытых</text>
<rect x="1000" y="1378" width="56" height="22" rx="8" fill="rgba(110,231,167,0.12)"/>
<text x="1008" y="1393" font-family="Figtree,sans-serif" font-size="11" fill="#6ee7a7">пилот</text>
<text x="1440" y="1062" font-family="Figtree,sans-serif" font-size="14" font-weight="600" fill="#a8b6c7">05 · Рейтинг</text>
<rect x="1440" y="1080" width="1280" height="800" rx="8" fill="#070b0a"/>
<circle cx="1590" cy="1120" r="180" fill="rgba(110,231,167,0.12)"/>
<circle cx="2540" cy="1160" r="160" fill="rgba(168,85,247,0.10)"/>
<rect x="1440" y="1080" width="1280" height="56" fill="#080e0d" fill-opacity="0.92"/>
<text x="1468" y="1116" font-family="Space Grotesk,sans-serif" font-size="20" font-weight="700" fill="#109963">Up</text>
<text x="1494" y="1116" font-family="Space Grotesk,sans-serif" font-size="20" font-weight="600" fill="#f4f7fb">Grade</text>
<text x="1620" y="1115" font-family="Figtree,sans-serif" font-size="12" font-weight="400" fill="#a8b6c7">Главная</text>
<text x="1715" y="1115" font-family="Figtree,sans-serif" font-size="12" font-weight="400" fill="#a8b6c7">Идеи</text>
<text x="1810" y="1115" font-family="Figtree,sans-serif" font-size="12" font-weight="600" fill="#6ee7a7">Рейтинг</text>
<text x="1905" y="1115" font-family="Figtree,sans-serif" font-size="12" font-weight="400" fill="#a8b6c7">Избранное</text>
<text x="2000" y="1115" font-family="Figtree,sans-serif" font-size="12" font-weight="400" fill="#a8b6c7">Новости</text>
<text x="2095" y="1115" font-family="Figtree,sans-serif" font-size="12" font-weight="400" fill="#a8b6c7">Команды</text>
<text x="2190" y="1115" font-family="Figtree,sans-serif" font-size="12" font-weight="400" fill="#a8b6c7">Поддержка</text>
<text x="2285" y="1115" font-family="Figtree,sans-serif" font-size="12" font-weight="400" fill="#a8b6c7">О платформе</text>
<text x="2680" y="1115" font-family="Figtree,sans-serif" font-size="12" fill="#a8b6c7" text-anchor="end">Админ</text>
<text x="1480" y="1180" font-family="Bricolage Grotesque,sans-serif" font-size="26" font-weight="700" fill="#f4f7fb">Рейтинг</text>
<rect x="1480" y="1220" width="380" height="280" rx="16" fill="#101c1a" stroke="rgba(255,255,255,0.14)" stroke-width="1"/>
<text x="1500" y="1256" font-family="Figtree,sans-serif" font-size="15" font-weight="600" fill="#f4f7fb">Топ идей</text>
<text x="1500" y="1280" font-family="Figtree,sans-serif" font-size="12" fill="#a8b6c7">1. ПМЗ 4.8 · 2. Осмотр AI 4.6 · 3. Статусы 4.2</text>
<rect x="1500" y="1298" width="48" height="22" rx="8" fill="rgba(110,231,167,0.12)"/>
<text x="1508" y="1313" font-family="Figtree,sans-serif" font-size="11" fill="#6ee7a7">идеи</text>
<rect x="1890" y="1220" width="380" height="280" rx="16" fill="#101c1a" stroke="rgba(255,255,255,0.14)" stroke-width="1"/>
<text x="1910" y="1256" font-family="Figtree,sans-serif" font-size="15" font-weight="600" fill="#f4f7fb">Топ авторов</text>
<text x="1910" y="1280" font-family="Figtree,sans-serif" font-size="12" fill="#a8b6c7">1. Иванова · 2. Петров · 3. Сидорова</text>
<rect x="1910" y="1298" width="64" height="22" rx="8" fill="rgba(110,231,167,0.12)"/>
<text x="1918" y="1313" font-family="Figtree,sans-serif" font-size="11" fill="#6ee7a7">авторы</text>
<rect x="2300" y="1220" width="380" height="280" rx="16" fill="#101c1a" stroke="rgba(255,255,255,0.14)" stroke-width="1"/>
<text x="2320" y="1256" font-family="Figtree,sans-serif" font-size="15" font-weight="600" fill="#f4f7fb">Топ разработчиков</text>
<text x="2320" y="1280" font-family="Figtree,sans-serif" font-size="12" fill="#a8b6c7">1. Козлов · 2. Орлова · 3. Смирнов</text>
<rect x="2320" y="1298" width="96" height="22" rx="8" fill="rgba(110,231,167,0.12)"/>
<text x="2328" y="1313" font-family="Figtree,sans-serif" font-size="11" fill="#6ee7a7">разработка</text>
<text x="2800" y="1062" font-family="Figtree,sans-serif" font-size="14" font-weight="600" fill="#a8b6c7">06 · Избранное</text>
<rect x="2800" y="1080" width="1280" height="800" rx="8" fill="#070b0a"/>
<circle cx="2950" cy="1120" r="180" fill="rgba(110,231,167,0.12)"/>
<circle cx="3900" cy="1160" r="160" fill="rgba(168,85,247,0.10)"/>
<rect x="2800" y="1080" width="1280" height="56" fill="#080e0d" fill-opacity="0.92"/>
<text x="2828" y="1116" font-family="Space Grotesk,sans-serif" font-size="20" font-weight="700" fill="#109963">Up</text>
<text x="2854" y="1116" font-family="Space Grotesk,sans-serif" font-size="20" font-weight="600" fill="#f4f7fb">Grade</text>
<text x="2980" y="1115" font-family="Figtree,sans-serif" font-size="12" font-weight="400" fill="#a8b6c7">Главная</text>
<text x="3075" y="1115" font-family="Figtree,sans-serif" font-size="12" font-weight="400" fill="#a8b6c7">Идеи</text>
<text x="3170" y="1115" font-family="Figtree,sans-serif" font-size="12" font-weight="400" fill="#a8b6c7">Рейтинг</text>
<text x="3265" y="1115" font-family="Figtree,sans-serif" font-size="12" font-weight="600" fill="#6ee7a7">Избранное</text>
<text x="3360" y="1115" font-family="Figtree,sans-serif" font-size="12" font-weight="400" fill="#a8b6c7">Новости</text>
<text x="3455" y="1115" font-family="Figtree,sans-serif" font-size="12" font-weight="400" fill="#a8b6c7">Команды</text>
<text x="3550" y="1115" font-family="Figtree,sans-serif" font-size="12" font-weight="400" fill="#a8b6c7">Поддержка</text>
<text x="3645" y="1115" font-family="Figtree,sans-serif" font-size="12" font-weight="400" fill="#a8b6c7">О платформе</text>
<text x="4040" y="1115" font-family="Figtree,sans-serif" font-size="12" fill="#a8b6c7" text-anchor="end">Админ</text>
<text x="2840" y="1180" font-family="Bricolage Grotesque,sans-serif" font-size="26" font-weight="700" fill="#f4f7fb">Избранное</text>
<rect x="2840" y="1220" width="380" height="200" rx="16" fill="#101c1a" stroke="rgba(255,255,255,0.14)" stroke-width="1"/>
<text x="2860" y="1256" font-family="Figtree,sans-serif" font-size="15" font-weight="600" fill="#f4f7fb">Мониторинг ПМЗ</text>
<text x="2860" y="1280" font-family="Figtree,sans-serif" font-size="12" fill="#a8b6c7">Внедрено · ★ 4.8</text>
<rect x="2860" y="1298" width="40" height="22" rx="8" fill="rgba(110,231,167,0.12)"/>
<text x="2868" y="1313" font-family="Figtree,sans-serif" font-size="11" fill="#6ee7a7">ПМЗ</text>
<rect x="3250" y="1220" width="380" height="200" rx="16" fill="#101c1a" stroke="rgba(255,255,255,0.14)" stroke-width="1"/>
<text x="3270" y="1256" font-family="Figtree,sans-serif" font-size="15" font-weight="600" fill="#f4f7fb">Единый статус заявки</text>
<text x="3270" y="1280" font-family="Figtree,sans-serif" font-size="12" fill="#a8b6c7">Пилот · ★ 4.2</text>
<rect x="3270" y="1298" width="72" height="22" rx="8" fill="rgba(110,231,167,0.12)"/>
<text x="3278" y="1313" font-family="Figtree,sans-serif" font-size="11" fill="#6ee7a7">статусы</text>
<rect x="3660" y="1220" width="380" height="200" rx="16" fill="#101c1a" stroke="rgba(255,255,255,0.14)" stroke-width="1"/>
<text x="3680" y="1256" font-family="Figtree,sans-serif" font-size="15" font-weight="600" fill="#f4f7fb">Экспресс-оценка AI</text>
<text x="3680" y="1280" font-family="Figtree,sans-serif" font-size="12" fill="#a8b6c7">Прототип · ★ 4.4</text>
<rect x="3680" y="1298" width="32" height="22" rx="8" fill="rgba(110,231,167,0.12)"/>
<text x="3688" y="1313" font-family="Figtree,sans-serif" font-size="11" fill="#6ee7a7">AI</text>
<text x="80" y="1942" font-family="Figtree,sans-serif" font-size="14" font-weight="600" fill="#a8b6c7">07 · Новости</text>
<rect x="80" y="1960" width="1280" height="800" rx="8" fill="#070b0a"/>
<circle cx="230" cy="2000" r="180" fill="rgba(110,231,167,0.12)"/>
<circle cx="1180" cy="2040" r="160" fill="rgba(168,85,247,0.10)"/>
<rect x="80" y="1960" width="1280" height="56" fill="#080e0d" fill-opacity="0.92"/>
<text x="108" y="1996" font-family="Space Grotesk,sans-serif" font-size="20" font-weight="700" fill="#109963">Up</text>
<text x="134" y="1996" font-family="Space Grotesk,sans-serif" font-size="20" font-weight="600" fill="#f4f7fb">Grade</text>
<text x="260" y="1995" font-family="Figtree,sans-serif" font-size="12" font-weight="400" fill="#a8b6c7">Главная</text>
<text x="355" y="1995" font-family="Figtree,sans-serif" font-size="12" font-weight="400" fill="#a8b6c7">Идеи</text>
<text x="450" y="1995" font-family="Figtree,sans-serif" font-size="12" font-weight="400" fill="#a8b6c7">Рейтинг</text>
<text x="545" y="1995" font-family="Figtree,sans-serif" font-size="12" font-weight="400" fill="#a8b6c7">Избранное</text>
<text x="640" y="1995" font-family="Figtree,sans-serif" font-size="12" font-weight="600" fill="#6ee7a7">Новости</text>
<text x="735" y="1995" font-family="Figtree,sans-serif" font-size="12" font-weight="400" fill="#a8b6c7">Команды</text>
<text x="830" y="1995" font-family="Figtree,sans-serif" font-size="12" font-weight="400" fill="#a8b6c7">Поддержка</text>
<text x="925" y="1995" font-family="Figtree,sans-serif" font-size="12" font-weight="400" fill="#a8b6c7">О платформе</text>
<text x="1320" y="1995" font-family="Figtree,sans-serif" font-size="12" fill="#a8b6c7" text-anchor="end">Админ</text>
<text x="120" y="2060" font-family="Bricolage Grotesque,sans-serif" font-size="26" font-weight="700" fill="#f4f7fb">Новости</text>
<rect x="120" y="2100" width="1200" height="140" rx="16" fill="#101c1a" stroke="rgba(255,255,255,0.14)" stroke-width="1"/>
<text x="140" y="2136" font-family="Figtree,sans-serif" font-size="15" font-weight="600" fill="#f4f7fb">Пилот единых статусов открыт</text>
<text x="140" y="2160" font-family="Figtree,sans-serif" font-size="12" fill="#a8b6c7">25 сен 2026</text>
<rect x="140" y="2178" width="72" height="22" rx="8" fill="rgba(110,231,167,0.12)"/>
<text x="148" y="2193" font-family="Figtree,sans-serif" font-size="11" fill="#6ee7a7">новость</text>
<rect x="120" y="2260" width="1200" height="140" rx="16" fill="#101c1a" stroke="rgba(255,255,255,0.14)" stroke-width="1"/>
<text x="140" y="2296" font-family="Figtree,sans-serif" font-size="15" font-weight="600" fill="#f4f7fb">Обновление пути инициативы</text>
<text x="140" y="2320" font-family="Figtree,sans-serif" font-size="12" fill="#a8b6c7">18 сен 2026</text>
<rect x="140" y="2338" width="72" height="22" rx="8" fill="rgba(110,231,167,0.12)"/>
<text x="148" y="2353" font-family="Figtree,sans-serif" font-size="11" fill="#6ee7a7">новость</text>
<rect x="120" y="2420" width="1200" height="140" rx="16" fill="#101c1a" stroke="rgba(255,255,255,0.14)" stroke-width="1"/>
<text x="140" y="2456" font-family="Figtree,sans-serif" font-size="15" font-weight="600" fill="#f4f7fb">Новый шаблон прототипа HTML</text>
<text x="140" y="2480" font-family="Figtree,sans-serif" font-size="12" fill="#a8b6c7">10 сен 2026</text>
<rect x="140" y="2498" width="72" height="22" rx="8" fill="rgba(110,231,167,0.12)"/>
<text x="148" y="2513" font-family="Figtree,sans-serif" font-size="11" fill="#6ee7a7">новость</text>
<text x="1440" y="1942" font-family="Figtree,sans-serif" font-size="14" font-weight="600" fill="#a8b6c7">08 · Команды</text>
<rect x="1440" y="1960" width="1280" height="800" rx="8" fill="#070b0a"/>
<circle cx="1590" cy="2000" r="180" fill="rgba(110,231,167,0.12)"/>
<circle cx="2540" cy="2040" r="160" fill="rgba(168,85,247,0.10)"/>
<rect x="1440" y="1960" width="1280" height="56" fill="#080e0d" fill-opacity="0.92"/>
<text x="1468" y="1996" font-family="Space Grotesk,sans-serif" font-size="20" font-weight="700" fill="#109963">Up</text>
<text x="1494" y="1996" font-family="Space Grotesk,sans-serif" font-size="20" font-weight="600" fill="#f4f7fb">Grade</text>
<text x="1620" y="1995" font-family="Figtree,sans-serif" font-size="12" font-weight="400" fill="#a8b6c7">Главная</text>
<text x="1715" y="1995" font-family="Figtree,sans-serif" font-size="12" font-weight="400" fill="#a8b6c7">Идеи</text>
<text x="1810" y="1995" font-family="Figtree,sans-serif" font-size="12" font-weight="400" fill="#a8b6c7">Рейтинг</text>
<text x="1905" y="1995" font-family="Figtree,sans-serif" font-size="12" font-weight="400" fill="#a8b6c7">Избранное</text>
<text x="2000" y="1995" font-family="Figtree,sans-serif" font-size="12" font-weight="400" fill="#a8b6c7">Новости</text>
<text x="2095" y="1995" font-family="Figtree,sans-serif" font-size="12" font-weight="600" fill="#6ee7a7">Команды</text>
<text x="2190" y="1995" font-family="Figtree,sans-serif" font-size="12" font-weight="400" fill="#a8b6c7">Поддержка</text>
<text x="2285" y="1995" font-family="Figtree,sans-serif" font-size="12" font-weight="400" fill="#a8b6c7">О платформе</text>
<text x="2680" y="1995" font-family="Figtree,sans-serif" font-size="12" fill="#a8b6c7" text-anchor="end">Админ</text>
<text x="1480" y="2060" font-family="Bricolage Grotesque,sans-serif" font-size="26" font-weight="700" fill="#f4f7fb">Команды</text>
<rect x="1480" y="2100" width="580" height="220" rx="16" fill="#101c1a" stroke="rgba(255,255,255,0.14)" stroke-width="1"/>
<text x="1500" y="2136" font-family="Figtree,sans-serif" font-size="15" font-weight="600" fill="#f4f7fb">Команда осмотра</text>
<text x="1500" y="2160" font-family="Figtree,sans-serif" font-size="12" fill="#a8b6c7">Иванова, Петров, Козлов</text>
<rect x="1500" y="2178" width="64" height="22" rx="8" fill="rgba(110,231,167,0.12)"/>
<text x="1508" y="2193" font-family="Figtree,sans-serif" font-size="11" fill="#6ee7a7">состав</text>
<rect x="2090" y="2100" width="590" height="220" rx="16" fill="#101c1a" stroke="rgba(255,255,255,0.14)" stroke-width="1"/>
<text x="2110" y="2136" font-family="Figtree,sans-serif" font-size="15" font-weight="600" fill="#f4f7fb">Команда прототипов</text>
<text x="2110" y="2160" font-family="Figtree,sans-serif" font-size="12" fill="#a8b6c7">Орлова, Смирнов</text>
<rect x="2110" y="2178" width="64" height="22" rx="8" fill="rgba(110,231,167,0.12)"/>
<text x="2118" y="2193" font-family="Figtree,sans-serif" font-size="11" fill="#6ee7a7">состав</text>
<rect x="1480" y="2360" width="180" height="44" rx="12" fill="rgba(110,231,167,0.18)" stroke="rgba(110,231,167,0.45)"/>
<text x="1570" y="2388" font-family="Figtree,sans-serif" font-size="14" font-weight="600" fill="#6ee7a7" text-anchor="middle">Создать команду</text>
<text x="2800" y="1942" font-family="Figtree,sans-serif" font-size="14" font-weight="600" fill="#a8b6c7">09 · Поддержка</text>
<rect x="2800" y="1960" width="1280" height="800" rx="8" fill="#070b0a"/>
<circle cx="2950" cy="2000" r="180" fill="rgba(110,231,167,0.12)"/>
<circle cx="3900" cy="2040" r="160" fill="rgba(168,85,247,0.10)"/>
<rect x="2800" y="1960" width="1280" height="56" fill="#080e0d" fill-opacity="0.92"/>
<text x="2828" y="1996" font-family="Space Grotesk,sans-serif" font-size="20" font-weight="700" fill="#109963">Up</text>
<text x="2854" y="1996" font-family="Space Grotesk,sans-serif" font-size="20" font-weight="600" fill="#f4f7fb">Grade</text>
<text x="2980" y="1995" font-family="Figtree,sans-serif" font-size="12" font-weight="400" fill="#a8b6c7">Главная</text>
<text x="3075" y="1995" font-family="Figtree,sans-serif" font-size="12" font-weight="400" fill="#a8b6c7">Идеи</text>
<text x="3170" y="1995" font-family="Figtree,sans-serif" font-size="12" font-weight="400" fill="#a8b6c7">Рейтинг</text>
<text x="3265" y="1995" font-family="Figtree,sans-serif" font-size="12" font-weight="400" fill="#a8b6c7">Избранное</text>
<text x="3360" y="1995" font-family="Figtree,sans-serif" font-size="12" font-weight="400" fill="#a8b6c7">Новости</text>
<text x="3455" y="1995" font-family="Figtree,sans-serif" font-size="12" font-weight="400" fill="#a8b6c7">Команды</text>
<text x="3550" y="1995" font-family="Figtree,sans-serif" font-size="12" font-weight="600" fill="#6ee7a7">Поддержка</text>
<text x="3645" y="1995" font-family="Figtree,sans-serif" font-size="12" font-weight="400" fill="#a8b6c7">О платформе</text>
<text x="4040" y="1995" font-family="Figtree,sans-serif" font-size="12" fill="#a8b6c7" text-anchor="end">Админ</text>
<text x="2840" y="2060" font-family="Bricolage Grotesque,sans-serif" font-size="26" font-weight="700" fill="#f4f7fb">Поддержка</text>
<rect x="2840" y="2100" width="700" height="420" rx="16" fill="#101c1a" stroke="rgba(255,255,255,0.14)"/>
<text x="2864" y="2140" font-family="Figtree,sans-serif" font-size="14" font-weight="600" fill="#f4f7fb">Заявка</text>
<rect x="2864" y="2160" width="650" height="44" rx="12" fill="rgba(0,0,0,0.35)" stroke="rgba(255,255,255,0.14)"/>
<rect x="2864" y="2230" width="650" height="160" rx="12" fill="rgba(0,0,0,0.35)" stroke="rgba(255,255,255,0.14)"/>
<text x="2880" y="2260" font-family="Figtree,sans-serif" font-size="13" fill="#a8b6c7">Опишите вопрос…</text>
<rect x="2864" y="2430" width="160" height="44" rx="12" fill="rgba(110,231,167,0.18)" stroke="rgba(110,231,167,0.45)"/>
<text x="2944" y="2458" font-family="Figtree,sans-serif" font-size="14" font-weight="600" fill="#6ee7a7" text-anchor="middle">Отправить</text>
<rect x="3580" y="2100" width="460" height="420" rx="16" fill="#101c1a" stroke="rgba(255,255,255,0.14)" stroke-width="1"/>
<text x="3600" y="2136" font-family="Figtree,sans-serif" font-size="15" font-weight="600" fill="#f4f7fb">Мои заявки</text>
<text x="3600" y="2160" font-family="Figtree,sans-serif" font-size="12" fill="#a8b6c7">В работе: 1 · Закрыто: 4</text>
<rect x="3600" y="2178" width="64" height="22" rx="8" fill="rgba(110,231,167,0.12)"/>
<text x="3608" y="2193" font-family="Figtree,sans-serif" font-size="11" fill="#6ee7a7">тикеты</text>
<text x="80" y="2822" font-family="Figtree,sans-serif" font-size="14" font-weight="600" fill="#a8b6c7">10 · О платформе</text>
<rect x="80" y="2840" width="1280" height="800" rx="8" fill="#070b0a"/>
<circle cx="230" cy="2880" r="180" fill="rgba(110,231,167,0.12)"/>
<circle cx="1180" cy="2920" r="160" fill="rgba(168,85,247,0.10)"/>
<rect x="80" y="2840" width="1280" height="56" fill="#080e0d" fill-opacity="0.92"/>
<text x="108" y="2876" font-family="Space Grotesk,sans-serif" font-size="20" font-weight="700" fill="#109963">Up</text>
<text x="134" y="2876" font-family="Space Grotesk,sans-serif" font-size="20" font-weight="600" fill="#f4f7fb">Grade</text>
<text x="260" y="2875" font-family="Figtree,sans-serif" font-size="12" font-weight="400" fill="#a8b6c7">Главная</text>
<text x="355" y="2875" font-family="Figtree,sans-serif" font-size="12" font-weight="400" fill="#a8b6c7">Идеи</text>
<text x="450" y="2875" font-family="Figtree,sans-serif" font-size="12" font-weight="400" fill="#a8b6c7">Рейтинг</text>
<text x="545" y="2875" font-family="Figtree,sans-serif" font-size="12" font-weight="400" fill="#a8b6c7">Избранное</text>
<text x="640" y="2875" font-family="Figtree,sans-serif" font-size="12" font-weight="400" fill="#a8b6c7">Новости</text>
<text x="735" y="2875" font-family="Figtree,sans-serif" font-size="12" font-weight="400" fill="#a8b6c7">Команды</text>
<text x="830" y="2875" font-family="Figtree,sans-serif" font-size="12" font-weight="400" fill="#a8b6c7">Поддержка</text>
<text x="925" y="2875" font-family="Figtree,sans-serif" font-size="12" font-weight="600" fill="#6ee7a7">О платформе</text>
<text x="1320" y="2875" font-family="Figtree,sans-serif" font-size="12" fill="#a8b6c7" text-anchor="end">Админ</text>
<text x="120" y="2960" font-family="Bricolage Grotesque,sans-serif" font-size="28" font-weight="700" fill="#f4f7fb">О платформе UpGrade</text>
<text x="120" y="3000" font-family="Figtree,sans-serif" font-size="15" fill="#a8b6c7">Путь инициативы: подача → оценка → прототип → пилот → бэклог → внедрение.</text>
<rect x="120" y="3060" width="180" height="60" rx="14" fill="#101c1a" stroke="#6ee7a7" stroke-opacity="0.4"/>
<text x="210" y="3095" font-family="Space Grotesk,sans-serif" font-size="13" fill="#6ee7a7" text-anchor="middle">Подача</text>
<rect x="320" y="3060" width="180" height="60" rx="14" fill="#101c1a" stroke="#6ee7a7" stroke-opacity="0.4"/>
<text x="410" y="3095" font-family="Space Grotesk,sans-serif" font-size="13" fill="#6ee7a7" text-anchor="middle">Оценка</text>
<rect x="520" y="3060" width="180" height="60" rx="14" fill="#101c1a" stroke="#6ee7a7" stroke-opacity="0.4"/>
<text x="610" y="3095" font-family="Space Grotesk,sans-serif" font-size="13" fill="#6ee7a7" text-anchor="middle">Прототип</text>
<rect x="720" y="3060" width="180" height="60" rx="14" fill="#101c1a" stroke="#6ee7a7" stroke-opacity="0.4"/>
<text x="810" y="3095" font-family="Space Grotesk,sans-serif" font-size="13" fill="#6ee7a7" text-anchor="middle">Пилот</text>
<rect x="920" y="3060" width="180" height="60" rx="14" fill="#101c1a" stroke="#6ee7a7" stroke-opacity="0.4"/>
<text x="1010" y="3095" font-family="Space Grotesk,sans-serif" font-size="13" fill="#6ee7a7" text-anchor="middle">Бэклог</text>
<rect x="1120" y="3060" width="180" height="60" rx="14" fill="#101c1a" stroke="#6ee7a7" stroke-opacity="0.4"/>
<text x="1210" y="3095" font-family="Space Grotesk,sans-serif" font-size="13" fill="#6ee7a7" text-anchor="middle">Внедрено</text>
<text x="1440" y="2822" font-family="Figtree,sans-serif" font-size="14" font-weight="600" fill="#a8b6c7">11 · Аналитика /admin</text>
<rect x="1440" y="2840" width="1280" height="800" rx="8" fill="#070b0a"/>
<circle cx="1590" cy="2880" r="180" fill="rgba(110,231,167,0.12)"/>
<circle cx="2540" cy="2920" r="160" fill="rgba(168,85,247,0.10)"/>
<rect x="1440" y="2840" width="1280" height="56" fill="#080e0d" fill-opacity="0.92"/>
<text x="1468" y="2876" font-family="Space Grotesk,sans-serif" font-size="20" font-weight="700" fill="#109963">Up</text>
<text x="1494" y="2876" font-family="Space Grotesk,sans-serif" font-size="20" font-weight="600" fill="#f4f7fb">Grade</text>
<text x="1620" y="2875" font-family="Figtree,sans-serif" font-size="12" font-weight="400" fill="#a8b6c7">Главная</text>
<text x="1715" y="2875" font-family="Figtree,sans-serif" font-size="12" font-weight="400" fill="#a8b6c7">Идеи</text>
<text x="1810" y="2875" font-family="Figtree,sans-serif" font-size="12" font-weight="400" fill="#a8b6c7">Рейтинг</text>
<text x="1905" y="2875" font-family="Figtree,sans-serif" font-size="12" font-weight="400" fill="#a8b6c7">Избранное</text>
<text x="2000" y="2875" font-family="Figtree,sans-serif" font-size="12" font-weight="400" fill="#a8b6c7">Новости</text>
<text x="2095" y="2875" font-family="Figtree,sans-serif" font-size="12" font-weight="400" fill="#a8b6c7">Команды</text>
<text x="2190" y="2875" font-family="Figtree,sans-serif" font-size="12" font-weight="400" fill="#a8b6c7">Поддержка</text>
<text x="2285" y="2875" font-family="Figtree,sans-serif" font-size="12" font-weight="400" fill="#a8b6c7">О платформе</text>
<text x="2680" y="2875" font-family="Figtree,sans-serif" font-size="12" fill="#a8b6c7" text-anchor="end">Админ</text>
<text x="1480" y="2940" font-family="Bricolage Grotesque,sans-serif" font-size="26" font-weight="700" fill="#f4f7fb">Аналитика</text>
<rect x="1480" y="2980" width="280" height="140" rx="16" fill="#101c1a" stroke="rgba(255,255,255,0.14)" stroke-width="1"/>
<text x="1500" y="3016" font-family="Figtree,sans-serif" font-size="15" font-weight="600" fill="#f4f7fb">Визиты</text>
<text x="1500" y="3040" font-family="Figtree,sans-serif" font-size="12" fill="#a8b6c7">12 480</text>
<rect x="1500" y="3058" width="64" height="22" rx="8" fill="rgba(110,231,167,0.12)"/>
<text x="1508" y="3073" font-family="Figtree,sans-serif" font-size="11" fill="#6ee7a7">7 дней</text>
<rect x="1790" y="2980" width="280" height="140" rx="16" fill="#101c1a" stroke="rgba(255,255,255,0.14)" stroke-width="1"/>
<text x="1810" y="3016" font-family="Figtree,sans-serif" font-size="15" font-weight="600" fill="#f4f7fb">Входы</text>
<text x="1810" y="3040" font-family="Figtree,sans-serif" font-size="12" fill="#a8b6c7">3 120</text>
<rect x="1810" y="3058" width="64" height="22" rx="8" fill="rgba(110,231,167,0.12)"/>
<text x="1818" y="3073" font-family="Figtree,sans-serif" font-size="11" fill="#6ee7a7">7 дней</text>
<rect x="2100" y="2980" width="280" height="140" rx="16" fill="#101c1a" stroke="rgba(255,255,255,0.14)" stroke-width="1"/>
<text x="2120" y="3016" font-family="Figtree,sans-serif" font-size="15" font-weight="600" fill="#f4f7fb">Прототипы</text>
<text x="2120" y="3040" font-family="Figtree,sans-serif" font-size="12" fill="#a8b6c7">864 запуска</text>
<rect x="2120" y="3058" width="64" height="22" rx="8" fill="rgba(110,231,167,0.12)"/>
<text x="2128" y="3073" font-family="Figtree,sans-serif" font-size="11" fill="#6ee7a7">7 дней</text>
<rect x="2410" y="2980" width="270" height="140" rx="16" fill="#101c1a" stroke="rgba(255,255,255,0.14)" stroke-width="1"/>
<text x="2430" y="3016" font-family="Figtree,sans-serif" font-size="15" font-weight="600" fill="#f4f7fb">Идеи</text>
<text x="2430" y="3040" font-family="Figtree,sans-serif" font-size="12" fill="#a8b6c7">+18 новых</text>
<rect x="2430" y="3058" width="64" height="22" rx="8" fill="rgba(110,231,167,0.12)"/>
<text x="2438" y="3073" font-family="Figtree,sans-serif" font-size="11" fill="#6ee7a7">7 дней</text>
<rect x="1480" y="3160" width="1200" height="360" rx="16" fill="#101c1a" stroke="rgba(255,255,255,0.14)"/>
<text x="1504" y="3200" font-family="Figtree,sans-serif" font-size="14" font-weight="600" fill="#f4f7fb">Воронка и журнал действий</text>
<rect x="1520" y="3380" width="48" height="80" rx="8" fill="rgba(110,231,167,0.35)"/>
<rect x="1610" y="3340" width="48" height="120" rx="8" fill="rgba(110,231,167,0.35)"/>
<rect x="1700" y="3300" width="48" height="160" rx="8" fill="rgba(110,231,167,0.35)"/>
<rect x="1790" y="3320" width="48" height="140" rx="8" fill="rgba(110,231,167,0.35)"/>
<rect x="1880" y="3260" width="48" height="200" rx="8" fill="rgba(110,231,167,0.35)"/>
<rect x="1970" y="3280" width="48" height="180" rx="8" fill="rgba(110,231,167,0.35)"/>
<rect x="2060" y="3240" width="48" height="220" rx="8" fill="rgba(110,231,167,0.35)"/>
<rect x="2150" y="3270" width="48" height="190" rx="8" fill="rgba(110,231,167,0.35)"/>
<rect x="2240" y="3220" width="48" height="240" rx="8" fill="rgba(110,231,167,0.35)"/>
<rect x="2330" y="3250" width="48" height="210" rx="8" fill="rgba(110,231,167,0.35)"/>
<rect x="2420" y="3200" width="48" height="260" rx="8" fill="rgba(110,231,167,0.35)"/>
<rect x="2510" y="3230" width="48" height="230" rx="8" fill="rgba(110,231,167,0.35)"/>
</svg>